<svg version="1.1" id="Layer_1" xmlns="http://www.w3.org/2000/svg" xmlns:xlink="http://www.w3.org/1999/xlink" x="0px" y="0px"
	 width="100%" viewBox="0 0 500 500" xml:space="preserve">

<path fill="#BAF90C" opacity="1.000000" stroke="none" 
	d="
M356.980499,88.767181 
	C376.466614,72.376656 395.951324,55.984447 415.440765,39.597881 
	C417.706757,37.692665 419.998962,35.818630 423.458008,32.953613 
	C421.124207,42.284241 419.149475,50.215855 417.155823,58.142727 
	C412.289825,77.490425 408.152710,97.062119 402.311584,116.111107 
	C397.601227,131.472534 391.007507,146.274292 384.940063,161.198639 
	C361.841431,218.015457 338.605743,274.776520 315.444702,331.567993 
	C301.441711,365.903687 287.496124,400.262787 273.473724,434.590546 
	C272.432526,437.139496 270.979309,439.520172 269.234924,442.919830 
	C268.217682,440.916016 267.235199,439.769501 267.054626,438.508148 
	C263.730194,415.281952 260.437775,392.050537 257.352417,368.791809 
	C257.046814,366.488220 257.725067,363.834747 258.629700,361.623047 
	C271.649109,329.792419 284.788177,298.010773 297.875000,266.207703 
	C298.118347,265.616302 298.075256,264.907074 298.748779,263.870789 
	C301.217041,258.642212 303.102325,253.795609 304.987640,248.949020 
	C304.987640,248.949020 305.014679,248.996246 305.303223,248.821808 
	C305.937073,247.323181 306.282379,245.998993 306.627686,244.674805 
	C306.627686,244.674805 306.676575,244.800720 306.936249,244.658081 
	C307.415497,243.636017 307.635071,242.756592 307.854645,241.877151 
	C307.854645,241.877151 308.000000,242.000000 308.252380,241.809219 
	C311.925171,232.657211 315.345581,223.695984 318.765991,214.734741 
	C318.765991,214.734756 318.811859,214.874542 319.041504,214.709656 
	C319.503357,213.677567 319.735626,212.810394 319.967865,211.943207 
	C319.967865,211.943207 320.000854,211.993057 320.258026,211.790039 
	C320.999054,210.033722 321.482880,208.480453 321.966736,206.927170 
	C321.966736,206.927170 321.998505,206.983582 322.249603,206.780594 
	C322.993896,205.029846 323.487122,203.482071 323.980316,201.934311 
	C323.980316,201.934311 324.009186,201.991302 324.260071,201.790878 
	C325.003326,200.049286 325.495697,198.508118 325.988098,196.966949 
	C325.988098,196.966949 326.008850,196.992676 326.337982,196.906174 
	C329.404053,189.664810 332.140961,182.509964 334.877899,175.355103 
	C334.877899,175.355103 334.799805,175.252136 335.171448,174.990265 
	C335.969818,173.324036 336.396545,171.919662 336.823273,170.515305 
	C336.823273,170.515305 336.759521,170.232224 337.184387,169.932693 
	C338.025940,168.245712 338.442596,166.858276 338.859283,165.470825 
	C338.859283,165.470825 338.773651,165.241318 339.177643,164.973358 
	C340.382996,162.454269 341.184387,160.203125 341.985748,157.951981 
	C341.985748,157.951981 342.012787,157.996582 342.265808,157.789856 
	C345.900604,148.950104 349.282349,140.317093 352.664062,131.684082 
	C352.664062,131.684082 352.707397,131.817200 352.960144,131.665558 
	C354.799530,127.328354 356.386169,123.142769 357.972839,118.957191 
	C357.972839,118.957191 358.007111,118.985931 358.298523,118.820053 
	C359.730804,115.457016 360.871704,112.259865 362.012634,109.062714 
	C362.012604,109.062706 361.982422,109.014175 362.294861,108.840118 
	C363.114838,106.774490 363.622406,104.882935 364.130005,102.991379 
	C364.129974,102.991371 363.939270,102.806549 363.820496,102.369041 
	C359.074829,101.609970 354.430603,101.434349 349.830078,100.889870 
	C348.157867,100.691963 346.589813,99.614059 344.974243,98.937675 
	C344.974243,98.937675 344.988983,98.998940 345.275085,98.949043 
	C345.898071,98.423988 346.235016,97.948830 346.571960,97.473679 
	C346.571960,97.473679 346.599091,97.580093 346.883728,97.571205 
	C347.686859,96.927338 348.205353,96.292351 348.723846,95.657379 
	C348.723846,95.657379 348.756744,95.752396 349.024231,95.703476 
	C349.854431,95.069794 350.417114,94.485023 350.979797,93.900246 
	C350.979767,93.900238 350.983429,93.980774 351.184387,93.878563 
	C351.593079,93.502136 351.800842,93.227921 352.008606,92.953705 
	C352.008606,92.953705 352.005859,93.010971 352.293457,92.959648 
	C352.911957,92.429840 353.242859,91.951355 353.573761,91.472870 
	C353.573761,91.472878 353.620605,91.568207 353.860504,91.542091 
	C354.321289,91.215652 354.542175,90.915337 354.763062,90.615021 
	C354.763062,90.615013 354.776550,90.770119 355.031433,90.719101 
	C355.851044,90.034454 356.415771,89.400818 356.980499,88.767181 
z"/>
<path fill="#C9CDD2" opacity="1.000000" stroke="none" 
	d="
M124.867630,179.222717 
	C115.272232,157.343246 105.805542,135.825027 96.338844,114.306808 
	C96.524078,114.102684 96.709320,113.898552 96.894562,113.694427 
	C97.839317,114.735222 99.002975,115.648109 99.696815,116.835526 
	C116.796066,146.098679 134.145081,175.221375 150.838593,204.714951 
	C181.203583,258.362823 211.183655,312.228607 241.262909,366.037781 
	C242.186310,367.689667 242.929947,369.726929 242.912613,371.576599 
	C242.698792,394.392212 242.328979,417.206451 241.985641,440.020782 
	C241.979263,440.444977 241.804749,440.866608 241.518433,442.126892 
	C202.464767,354.132751 163.730560,266.858368 124.867630,179.222717 
z"/>
<path fill="#B7E139" opacity="1.000000" stroke="none" 
	d="
M344.671692,99.030556 
	C346.589813,99.614059 348.157867,100.691963 349.830078,100.889870 
	C354.430603,101.434349 359.074829,101.609970 363.881439,102.251053 
	C356.711304,102.570572 349.361481,102.570572 342.011627,102.570572 
	C341.753815,102.097748 341.496002,101.624924 341.238190,101.152107 
	C342.281830,100.475883 343.325500,99.799660 344.671692,99.030556 
z"/>
<path fill="#B7E139" opacity="1.000000" stroke="none" 
	d="
M318.512024,214.979187 
	C315.345581,223.695984 311.925171,232.657211 308.179199,241.748199 
	C311.321777,232.993179 314.789917,224.108398 318.512024,214.979187 
z"/>
<path fill="#B7E139" opacity="1.000000" stroke="none" 
	d="
M352.419250,131.931030 
	C349.282349,140.317093 345.900604,148.950104 342.240143,157.794418 
	C345.365753,149.396484 348.770111,140.787231 352.419250,131.931030 
z"/>
<path fill="#B7E139" opacity="1.000000" stroke="none" 
	d="
M334.593201,175.609619 
	C332.140961,182.509964 329.404053,189.664810 326.321594,196.906662 
	C328.753571,189.950485 331.531036,182.907303 334.593201,175.609619 
z"/>
<path fill="#B7E139" opacity="1.000000" stroke="none" 
	d="
M304.721588,249.177017 
	C303.102325,253.795609 301.217041,258.642212 299.022949,263.628845 
	C300.627930,258.980957 302.541718,254.192978 304.721588,249.177017 
z"/>
<path fill="#B7E139" opacity="1.000000" stroke="none" 
	d="
M357.714417,119.196350 
	C356.386169,123.142769 354.799530,127.328354 352.890198,131.669342 
	C354.197052,127.694992 355.826538,123.565247 357.714417,119.196350 
z"/>
<path fill="#B7E139" opacity="1.000000" stroke="none" 
	d="
M361.763428,109.300751 
	C360.871704,112.259865 359.730804,115.457016 358.276550,118.817810 
	C359.146881,115.833900 360.330566,112.686348 361.763428,109.300751 
z"/>
<path fill="#B7E139" opacity="1.000000" stroke="none" 
	d="
M341.721375,158.181152 
	C341.184387,160.203125 340.382996,162.454269 339.276642,164.901245 
	C339.800110,162.868164 340.628571,160.639236 341.721375,158.181152 
z"/>
<path fill="#B7E139" opacity="1.000000" stroke="none" 
	d="
M364.009308,103.324265 
	C363.622406,104.882935 363.114838,106.774490 362.322235,108.831970 
	C362.654327,107.217636 363.271484,105.437401 364.009308,103.324265 
z"/>
<path fill="#B7E139" opacity="1.000000" stroke="none" 
	d="
M306.381470,244.906738 
	C306.282379,245.998993 305.937073,247.323181 305.276672,248.827621 
	C305.352783,247.718155 305.744019,246.428406 306.381470,244.906738 
z"/>
<path fill="#B7E139" opacity="1.000000" stroke="none" 
	d="
M338.595825,165.723221 
	C338.442596,166.858276 338.025940,168.245712 337.293152,169.836670 
	C337.428833,168.685333 337.880585,167.330475 338.595825,165.723221 
z"/>
<path fill="#B7E139" opacity="1.000000" stroke="none" 
	d="
M336.558044,170.765381 
	C336.396545,171.919662 335.969818,173.324036 335.215393,174.942902 
	C335.356079,173.776749 335.824432,172.396103 336.558044,170.765381 
z"/>
<path fill="#B7E139" opacity="1.000000" stroke="none" 
	d="
M321.703308,207.153137 
	C321.482880,208.480453 320.999054,210.033722 320.228210,211.792374 
	C320.440765,210.458191 320.940308,208.918655 321.703308,207.153137 
z"/>
<path fill="#B7E139" opacity="1.000000" stroke="none" 
	d="
M325.731812,197.198242 
	C325.495697,198.508118 325.003326,200.049286 324.229462,201.800079 
	C324.457153,200.482971 324.966339,198.956253 325.731812,197.198242 
z"/>
<path fill="#B7E139" opacity="1.000000" stroke="none" 
	d="
M323.718079,202.162399 
	C323.487122,203.482071 322.993896,205.029846 322.217896,206.787155 
	C322.442047,205.461304 322.948944,203.925903 323.718079,202.162399 
z"/>
<path fill="#B7E139" opacity="1.000000" stroke="none" 
	d="
M356.681488,88.871170 
	C356.415771,89.400818 355.851044,90.034454 354.954254,90.708923 
	C355.208984,90.158218 355.795746,89.566681 356.681488,88.871170 
z"/>
<path fill="#B7E139" opacity="1.000000" stroke="none" 
	d="
M307.621857,242.104965 
	C307.635071,242.756592 307.415497,243.636017 306.868896,244.662964 
	C306.824249,243.984589 307.106659,243.158691 307.621857,242.104965 
z"/>
<path fill="#B7E139" opacity="1.000000" stroke="none" 
	d="
M319.698425,212.145325 
	C319.735626,212.810394 319.503357,213.677567 318.968811,214.720947 
	C318.920624,214.047241 319.174805,213.197342 319.698425,212.145325 
z"/>
<path fill="#B7E139" opacity="1.000000" stroke="none" 
	d="
M350.681824,93.974815 
	C350.417114,94.485023 349.854431,95.069794 348.975891,95.689697 
	C349.234650,95.166351 349.809265,94.607864 350.681824,93.974815 
z"/>
<path fill="#B7E139" opacity="1.000000" stroke="none" 
	d="
M348.446991,95.765900 
	C348.205353,96.292351 347.686859,96.927338 346.831543,97.554153 
	C347.053192,96.988800 347.611664,96.431618 348.446991,95.765900 
z"/>
<path fill="#B7E139" opacity="1.000000" stroke="none" 
	d="
M353.311646,91.593117 
	C353.242859,91.951355 352.911957,92.429840 352.266052,92.951187 
	C352.317230,92.567154 352.683380,92.140259 353.311646,91.593117 
z"/>
<path fill="#B7E139" opacity="1.000000" stroke="none" 
	d="
M346.315369,97.606400 
	C346.235016,97.948830 345.898071,98.423988 345.245117,98.939293 
	C345.305634,98.566002 345.682220,98.152573 346.315369,97.606400 
z"/>
<path fill="#B7E139" opacity="1.000000" stroke="none" 
	d="
M351.734192,93.008240 
	C351.800842,93.227921 351.593079,93.502136 351.144073,93.879074 
	C351.088470,93.675453 351.274139,93.369118 351.734192,93.008240 
z"/>
<path fill="#B7E139" opacity="1.000000" stroke="none" 
	d="
M354.499939,90.687988 
	C354.542175,90.915337 354.321289,91.215652 353.807678,91.536469 
	C353.755585,91.291618 353.996185,91.026283 354.499939,90.687988 
z"/>
</svg>